<svg width="512" height="512" viewBox="0 0 512 512" fill="none" xmlns="http://www.w3.org/2000/svg">
<g clip-path="url(#clip0)">
<path d="M428.849 453.056V503.466C428.849 508.179 425.028 512 420.315 512C415.603 512 411.782 508.179 411.782 503.466V453.056C411.782 413.805 380.02 382.042 340.766 382.042C322.193 382.042 305.341 372.58 295.688 356.73C293.236 352.705 294.512 347.455 298.537 345.003C302.56 342.549 307.812 343.826 310.264 347.852C316.794 358.574 328.198 364.975 340.766 364.975C389.448 364.972 428.849 404.369 428.849 453.056V453.056ZM453.892 296.329C462.487 283.585 461.741 266.995 452.036 255.048L435.706 234.946C432.001 230.387 430.794 224.34 432.472 218.769L442.125 186.742C446.539 172.096 440.896 156.459 428.084 147.834L408.898 134.919C402.485 130.602 399.535 122.791 401.556 115.481C407.547 93.8286 391.601 72.2209 368.724 71.2448L360.239 70.8843C345.747 70.2677 333.678 60.1562 330.888 46.2972L330.29 43.3221C325.547 19.7516 298.832 8.28103 278.154 19.9105C270.978 23.946 261.892 22.7736 256.056 17.0592L248.928 10.0806C235.202 -3.3602 212.869 -3.3602 199.144 10.0806L183.571 25.3274C180.877 27.9665 177.457 29.6903 173.682 30.3154L141.488 35.6374C114.183 40.1528 96.955 66.9 104.219 92.9869L110.543 115.69C112.545 122.878 109.652 130.56 103.342 134.807L83.7958 147.966C71.1028 156.513 65.5121 172.005 69.8857 186.517L79.6527 218.928C81.3008 224.399 80.1146 230.337 76.477 234.815L59.8925 255.23C50.2749 267.069 49.5356 283.507 58.0524 296.134L74.0246 319.817C78.2947 326.149 77.9352 334.406 73.1307 340.365L70.7657 343.296C57.9319 359.216 59.292 382.033 73.9307 396.366C75.5927 397.992 77.7475 398.803 79.9012 398.803C87.4867 398.803 91.3472 389.532 85.8738 384.171C77.5459 376.017 76.765 363.05 84.0529 354.01L86.4168 351.079C95.9523 339.252 96.6606 322.855 88.1759 310.275L72.2026 286.591C67.9165 280.237 68.293 271.958 73.1392 265.992L89.7247 245.576C96.9326 236.702 99.2773 224.9 95.995 214.004L86.2269 181.592C84.0263 174.289 86.8798 166.466 93.3271 162.125L112.872 148.967C125.293 140.608 130.963 125.394 126.985 111.112L120.661 88.4085C116.004 71.6918 127.362 55.2716 144.272 52.4757L176.467 47.1538C183.715 45.9558 190.301 42.6255 195.512 37.5233L211.085 22.2755C218.225 15.2841 229.846 15.282 236.987 22.2755L244.115 29.2551C255.338 40.2414 272.777 42.5178 286.522 34.7872C297.495 28.6108 311.183 34.8949 313.558 46.6887L314.156 49.6638C318.498 71.2459 337.15 86.9844 359.514 87.9381L367.999 88.2987C379.912 88.8054 388.167 99.8727 385.107 110.931C381.126 125.326 386.857 140.656 399.367 149.079L418.553 161.994C425.119 166.413 428.025 174.38 425.782 181.817L416.13 213.845C412.817 224.84 415.182 236.751 422.46 245.708L438.789 265.809C443.725 271.884 444.107 280.315 439.743 286.786L424.033 310.081C415.471 322.775 416.185 339.325 425.809 351.262C428.38 354.448 431.241 357.504 432.511 363.332C433.517 367.937 438.065 370.852 442.669 369.85C447.273 368.845 450.191 364.297 449.186 359.692C447.012 349.735 442.016 344.171 439.093 340.547C434.2 334.48 433.834 326.07 438.182 319.622L453.892 296.329ZM366.593 409.395C304.812 426.58 243.455 413.095 195.788 376.052C211.248 367.948 222.392 352.311 223.858 333.599C296.692 355.102 369.591 300.403 370.176 225.011C370.181 224.821 370.179 180.687 370.179 180.497C370.179 133.442 331.896 95.1588 284.841 95.1588H255.561C226.588 95.1588 200.049 111.716 189.522 136.359C183.093 151.406 185.851 161.47 183.645 173.358C180.019 192.897 164.113 211.43 136.371 228.445C132.353 230.909 131.094 236.163 133.558 240.181C136.022 244.198 141.275 245.459 145.294 242.994C177.331 223.348 195.88 200.967 200.426 176.474C202.967 162.797 200.27 154.645 205.217 143.067C213.098 124.622 233.329 112.229 255.561 112.229H284.841C322.485 112.229 353.111 142.854 353.111 180.499V224.12C353.111 277.647 309.565 321.193 256.039 321.193C218.093 321.193 183.401 298.874 167.658 264.333C165.704 260.043 160.642 258.151 156.354 260.106C152.065 262.061 150.172 267.121 152.127 271.411C163.463 296.28 183.16 315.746 206.968 327.111V329.412C206.968 349.087 191.026 364.979 171.31 364.979C122.526 364.979 83.2273 404.47 83.2273 453.06V503.47C83.2273 508.183 87.0483 512.004 91.7611 512.004C96.474 512.004 100.295 508.183 100.295 503.47V453.06C100.295 413.812 132.057 382.047 171.31 382.047C172.882 382.047 174.434 381.968 175.969 381.834C228.268 427.442 299.362 445.818 371.168 425.841C375.709 424.578 378.365 419.873 377.102 415.332C375.839 410.789 371.137 408.13 366.593 409.395V409.395Z" fill="#DDA552"/>
</g>
<defs>
<clipPath id="clip0">
<rect width="512" height="512" fill="white"/>
</clipPath>
</defs>
</svg>
